<mxfile host="app.diagrams.net" modified="2020-10-29T15:57:50.764Z" agent="5.0 (Windows NT 10.0; Win64; x64) AppleWebKit/537.36 (KHTML, like Gecko) Chrome/86.0.4240.111 Safari/537.36" etag="_mkKUTfMx84X7M37gJBn" version="13.8.5" type="github">
  <diagram id="DKj6TBFOXHYejWeqtXT9" name="Page-1">
    <mxGraphModel dx="6935" dy="4005" grid="1" gridSize="10" guides="1" tooltips="1" connect="1" arrows="1" fold="1" page="1" pageScale="1" pageWidth="850" pageHeight="1100" math="0" shadow="0">
      <root>
        <mxCell id="0" />
        <mxCell id="1" parent="0" />
        <mxCell id="yI7PjoIeiXjcI_CWV4Vf-2" value="" style="fillColor=#EFF0F3;strokeColor=none;dashed=0;verticalAlign=top;fontStyle=0;fontColor=#232F3D;" parent="1" vertex="1">
          <mxGeometry x="1680" y="906.35" width="396.19" height="663.65" as="geometry" />
        </mxCell>
        <mxCell id="yI7PjoIeiXjcI_CWV4Vf-3" value="" style="fillColor=#EFF0F3;strokeColor=none;dashed=0;verticalAlign=top;fontStyle=0;fontColor=#232F3D;" parent="1" vertex="1">
          <mxGeometry x="2310" y="850" width="395" height="380" as="geometry" />
        </mxCell>
        <mxCell id="yI7PjoIeiXjcI_CWV4Vf-5" value="" style="edgeStyle=orthogonalEdgeStyle;rounded=0;orthogonalLoop=1;jettySize=auto;html=1;startArrow=none;startFill=0;" parent="1" source="yI7PjoIeiXjcI_CWV4Vf-6" target="yI7PjoIeiXjcI_CWV4Vf-130" edge="1">
          <mxGeometry relative="1" as="geometry">
            <mxPoint x="725" y="1145" as="targetPoint" />
            <Array as="points">
              <mxPoint x="725" y="1180" />
              <mxPoint x="540" y="1180" />
            </Array>
          </mxGeometry>
        </mxCell>
        <mxCell id="yI7PjoIeiXjcI_CWV4Vf-6" value="" style="fillColor=#EFF0F3;strokeColor=none;dashed=0;verticalAlign=top;fontStyle=0;fontColor=#232F3D;" parent="1" vertex="1">
          <mxGeometry x="510" y="795" width="430" height="200" as="geometry" />
        </mxCell>
        <mxCell id="yI7PjoIeiXjcI_CWV4Vf-8" value="" style="edgeStyle=orthogonalEdgeStyle;rounded=0;orthogonalLoop=1;jettySize=auto;html=1;startArrow=none;startFill=0;" parent="1" source="yI7PjoIeiXjcI_CWV4Vf-9" target="yI7PjoIeiXjcI_CWV4Vf-130" edge="1">
          <mxGeometry relative="1" as="geometry">
            <mxPoint x="330" y="1145" as="targetPoint" />
            <Array as="points">
              <mxPoint x="330" y="1180" />
              <mxPoint x="540" y="1180" />
            </Array>
          </mxGeometry>
        </mxCell>
        <mxCell id="yI7PjoIeiXjcI_CWV4Vf-9" value="" style="fillColor=#EFF0F3;strokeColor=none;dashed=0;verticalAlign=top;fontStyle=0;fontColor=#232F3D;" parent="1" vertex="1">
          <mxGeometry x="170" y="795" width="320" height="200" as="geometry" />
        </mxCell>
        <mxCell id="yI7PjoIeiXjcI_CWV4Vf-10" value="" style="fillColor=none;strokeColor=#5A6C86;dashed=1;verticalAlign=top;fontStyle=0;fontColor=#5A6C86;fontSize=22;perimeterSpacing=33;" parent="1" vertex="1">
          <mxGeometry x="710" y="2660" width="810" height="554" as="geometry" />
        </mxCell>
        <mxCell id="yI7PjoIeiXjcI_CWV4Vf-11" value="Server contents" style="points=[[0,0],[0.25,0],[0.5,0],[0.75,0],[1,0],[1,0.25],[1,0.5],[1,0.75],[1,1],[0.75,1],[0.5,1],[0.25,1],[0,1],[0,0.75],[0,0.5],[0,0.25]];outlineConnect=0;gradientColor=none;html=1;whiteSpace=wrap;fontSize=12;fontStyle=0;shape=mxgraph.aws4.group;grIcon=mxgraph.aws4.group_on_premise;strokeColor=#5A6C86;fillColor=none;verticalAlign=top;align=left;spacingLeft=30;fontColor=#5A6C86;dashed=0;" parent="1" vertex="1">
          <mxGeometry x="840" y="3360" width="3240" height="1280" as="geometry" />
        </mxCell>
        <mxCell id="yI7PjoIeiXjcI_CWV4Vf-12" value="" style="rounded=1;arcSize=10;dashed=1;fillColor=none;gradientColor=none;dashPattern=8 3 1 3;strokeWidth=2;" parent="1" vertex="1">
          <mxGeometry x="1840" y="4700" width="780" height="350" as="geometry" />
        </mxCell>
        <mxCell id="yI7PjoIeiXjcI_CWV4Vf-13" value="" style="fillColor=#EFF0F3;strokeColor=none;dashed=0;verticalAlign=top;fontStyle=0;fontColor=#232F3D;" parent="1" vertex="1">
          <mxGeometry x="3200" y="870" width="440" height="770" as="geometry" />
        </mxCell>
        <mxCell id="yI7PjoIeiXjcI_CWV4Vf-14" value="" style="edgeStyle=orthogonalEdgeStyle;rounded=0;orthogonalLoop=1;jettySize=auto;html=1;startArrow=none;startFill=0;endArrow=classic;endFill=1;fontSize=19;fontColor=#000000;" parent="1" source="yI7PjoIeiXjcI_CWV4Vf-15" edge="1">
          <mxGeometry relative="1" as="geometry">
            <mxPoint x="3440" y="1370" as="targetPoint" />
          </mxGeometry>
        </mxCell>
        <mxCell id="yI7PjoIeiXjcI_CWV4Vf-15" value="" style="ellipse;whiteSpace=wrap;html=1;fontSize=19;fontColor=#000000;" parent="1" vertex="1">
          <mxGeometry x="3290" y="910" width="300" height="180" as="geometry" />
        </mxCell>
        <mxCell id="yI7PjoIeiXjcI_CWV4Vf-16" value="" style="edgeStyle=orthogonalEdgeStyle;rounded=0;orthogonalLoop=1;jettySize=auto;html=1;startArrow=none;startFill=0;endArrow=classic;endFill=1;fontSize=39;fontColor=#FFFFFF;" parent="1" source="yI7PjoIeiXjcI_CWV4Vf-18" target="yI7PjoIeiXjcI_CWV4Vf-64" edge="1">
          <mxGeometry relative="1" as="geometry">
            <mxPoint x="1320" y="2480" as="targetPoint" />
            <Array as="points">
              <mxPoint x="1900" y="2473" />
              <mxPoint x="1900" y="2473" />
            </Array>
            <mxPoint x="1490" y="2473" as="sourcePoint" />
          </mxGeometry>
        </mxCell>
        <mxCell id="yI7PjoIeiXjcI_CWV4Vf-17" value="" style="edgeStyle=orthogonalEdgeStyle;rounded=0;orthogonalLoop=1;jettySize=auto;html=1;" parent="1" source="yI7PjoIeiXjcI_CWV4Vf-18" edge="1">
          <mxGeometry relative="1" as="geometry">
            <mxPoint x="2290" y="2380" as="sourcePoint" />
            <mxPoint x="3830" y="1549.5999999999995" as="targetPoint" />
            <Array as="points">
              <mxPoint x="2360" y="2240" />
              <mxPoint x="3830" y="2240" />
            </Array>
          </mxGeometry>
        </mxCell>
        <mxCell id="yI7PjoIeiXjcI_CWV4Vf-18" value="Amazon API Gateway" style="outlineConnect=0;fontColor=#232F3E;gradientColor=none;strokeColor=#ffffff;fillColor=#232F3E;dashed=0;verticalLabelPosition=middle;verticalAlign=bottom;align=center;html=1;whiteSpace=wrap;fontSize=10;fontStyle=1;spacing=3;shape=mxgraph.aws4.productIcon;prIcon=mxgraph.aws4.api_gateway;" parent="1" vertex="1">
          <mxGeometry x="2101.96" y="2380" width="608.04" height="440" as="geometry" />
        </mxCell>
        <mxCell id="yI7PjoIeiXjcI_CWV4Vf-19" value="" style="edgeStyle=orthogonalEdgeStyle;rounded=0;orthogonalLoop=1;jettySize=auto;html=1;" parent="1" source="yI7PjoIeiXjcI_CWV4Vf-22" target="yI7PjoIeiXjcI_CWV4Vf-50" edge="1">
          <mxGeometry relative="1" as="geometry">
            <Array as="points">
              <mxPoint x="1400" y="4341" />
              <mxPoint x="1400" y="4341" />
            </Array>
          </mxGeometry>
        </mxCell>
        <mxCell id="D9-pF9VST5MEYYn45h6V-17" value="" style="edgeStyle=orthogonalEdgeStyle;rounded=0;orthogonalLoop=1;jettySize=auto;html=1;fontSize=24;startArrow=classic;startFill=1;" edge="1" parent="1" source="yI7PjoIeiXjcI_CWV4Vf-22" target="yI7PjoIeiXjcI_CWV4Vf-103">
          <mxGeometry relative="1" as="geometry">
            <mxPoint x="1656.3199999999997" y="4640" as="targetPoint" />
            <Array as="points">
              <mxPoint x="1656" y="5280" />
              <mxPoint x="3110" y="5280" />
            </Array>
          </mxGeometry>
        </mxCell>
        <mxCell id="yI7PjoIeiXjcI_CWV4Vf-22" value="Redshift" style="fillColor=none;strokeColor=#147EBA;dashed=1;verticalAlign=top;fontStyle=0;fontColor=#147EBA;" parent="1" vertex="1">
          <mxGeometry x="1461.32" y="4230" width="390" height="240" as="geometry" />
        </mxCell>
        <mxCell id="yI7PjoIeiXjcI_CWV4Vf-23" value="DynamoDB" style="fillColor=none;strokeColor=#147EBA;dashed=1;verticalAlign=top;fontStyle=0;fontColor=#147EBA;" parent="1" vertex="1">
          <mxGeometry x="2515" y="4230" width="390" height="240" as="geometry" />
        </mxCell>
        <mxCell id="yI7PjoIeiXjcI_CWV4Vf-24" value="" style="edgeStyle=orthogonalEdgeStyle;rounded=0;orthogonalLoop=1;jettySize=auto;html=1;startArrow=none;startFill=0;endArrow=none;endFill=0;fontSize=19;" parent="1" source="yI7PjoIeiXjcI_CWV4Vf-25" target="yI7PjoIeiXjcI_CWV4Vf-49" edge="1">
          <mxGeometry relative="1" as="geometry">
            <mxPoint x="2980" y="4180" as="targetPoint" />
            <Array as="points">
              <mxPoint x="2980" y="4011" />
              <mxPoint x="2980" y="4180" />
            </Array>
          </mxGeometry>
        </mxCell>
        <mxCell id="yI7PjoIeiXjcI_CWV4Vf-25" value="RDS  " style="fillColor=none;strokeColor=#147EBA;dashed=1;verticalAlign=top;fontStyle=0;fontColor=#147EBA;" parent="1" vertex="1">
          <mxGeometry x="2515" y="3891" width="390" height="240" as="geometry" />
        </mxCell>
        <mxCell id="yI7PjoIeiXjcI_CWV4Vf-26" style="edgeStyle=orthogonalEdgeStyle;rounded=0;orthogonalLoop=1;jettySize=auto;html=1;exitX=0.5;exitY=1;exitDx=0;exitDy=0;" parent="1" edge="1">
          <mxGeometry relative="1" as="geometry">
            <mxPoint x="1510" y="3323.6499999999996" as="sourcePoint" />
            <mxPoint x="1510" y="3323.6499999999996" as="targetPoint" />
          </mxGeometry>
        </mxCell>
        <mxCell id="yI7PjoIeiXjcI_CWV4Vf-27" value="" style="edgeStyle=orthogonalEdgeStyle;rounded=0;orthogonalLoop=1;jettySize=auto;html=1;entryX=0.455;entryY=0.018;entryDx=0;entryDy=0;entryPerimeter=0;" parent="1" source="yI7PjoIeiXjcI_CWV4Vf-28" target="yI7PjoIeiXjcI_CWV4Vf-57" edge="1">
          <mxGeometry relative="1" as="geometry">
            <mxPoint x="1887.4950000000003" y="1366.3450000000003" as="targetPoint" />
            <Array as="points" />
          </mxGeometry>
        </mxCell>
        <mxCell id="yI7PjoIeiXjcI_CWV4Vf-28" value="" style="outlineConnect=0;fontColor=#232F3E;gradientColor=none;fillColor=#232F3E;strokeColor=none;dashed=0;verticalLabelPosition=bottom;verticalAlign=top;align=center;html=1;fontSize=12;fontStyle=0;aspect=fixed;pointerEvents=1;shape=mxgraph.aws4.client;" parent="1" vertex="1">
          <mxGeometry x="1832.43" y="936.3499999999999" width="110.13" height="107.31" as="geometry" />
        </mxCell>
        <mxCell id="yI7PjoIeiXjcI_CWV4Vf-29" value="MySQL Database&lt;br&gt;(TRANSACTIONAL)" style="text;html=1;strokeColor=none;fillColor=none;align=center;verticalAlign=middle;whiteSpace=wrap;rounded=0;fontSize=19;" parent="1" vertex="1">
          <mxGeometry x="2690" y="4091" width="40" height="20" as="geometry" />
        </mxCell>
        <mxCell id="yI7PjoIeiXjcI_CWV4Vf-30" value="" style="outlineConnect=0;fontColor=#232F3E;gradientColor=none;fillColor=#3334B9;strokeColor=none;dashed=0;verticalLabelPosition=bottom;verticalAlign=top;align=center;html=1;fontSize=12;fontStyle=0;aspect=fixed;pointerEvents=1;shape=mxgraph.aws4.rds_mysql_instance;" parent="1" vertex="1">
          <mxGeometry x="2638.5" y="3931" width="143" height="143" as="geometry" />
        </mxCell>
        <mxCell id="yI7PjoIeiXjcI_CWV4Vf-31" value="" style="outlineConnect=0;fontColor=#232F3E;gradientColor=#4D72F3;gradientDirection=north;fillColor=#3334B9;strokeColor=#ffffff;dashed=0;verticalLabelPosition=bottom;verticalAlign=top;align=center;html=1;fontSize=12;fontStyle=0;aspect=fixed;shape=mxgraph.aws4.resourceIcon;resIcon=mxgraph.aws4.dynamodb;" parent="1" vertex="1">
          <mxGeometry x="2641.5" y="4265" width="140" height="140" as="geometry" />
        </mxCell>
        <mxCell id="yI7PjoIeiXjcI_CWV4Vf-32" value="" style="edgeStyle=orthogonalEdgeStyle;rounded=0;orthogonalLoop=1;jettySize=auto;html=1;startArrow=classic;startFill=1;fontSize=19;" parent="1" source="yI7PjoIeiXjcI_CWV4Vf-34" edge="1">
          <mxGeometry relative="1" as="geometry">
            <mxPoint x="2515" y="4324.5" as="targetPoint" />
          </mxGeometry>
        </mxCell>
        <mxCell id="yI7PjoIeiXjcI_CWV4Vf-33" value="" style="edgeStyle=orthogonalEdgeStyle;rounded=0;orthogonalLoop=1;jettySize=auto;html=1;" parent="1" source="yI7PjoIeiXjcI_CWV4Vf-34" edge="1">
          <mxGeometry relative="1" as="geometry">
            <mxPoint x="1980" y="3780" as="targetPoint" />
            <Array as="points">
              <mxPoint x="2110" y="4325" />
              <mxPoint x="2110" y="3780" />
            </Array>
          </mxGeometry>
        </mxCell>
        <mxCell id="yI7PjoIeiXjcI_CWV4Vf-34" value="" style="outlineConnect=0;dashed=0;verticalLabelPosition=bottom;verticalAlign=top;align=center;html=1;shape=mxgraph.aws3.dynamo_db;fillColor=#2E73B8;gradientColor=none;fontSize=19;" parent="1" vertex="1">
          <mxGeometry x="2150" y="4239" width="160" height="171" as="geometry" />
        </mxCell>
        <mxCell id="yI7PjoIeiXjcI_CWV4Vf-35" value="PostgreSQL Database (DECISIONAL)" style="text;html=1;strokeColor=none;fillColor=none;align=center;verticalAlign=middle;whiteSpace=wrap;rounded=0;fontSize=19;" parent="1" vertex="1">
          <mxGeometry x="1640" y="4430" width="40" height="20" as="geometry" />
        </mxCell>
        <mxCell id="yI7PjoIeiXjcI_CWV4Vf-36" value="Amazon Redshift" style="text;html=1;strokeColor=none;fillColor=none;align=center;verticalAlign=middle;whiteSpace=wrap;rounded=0;fontSize=19;" parent="1" vertex="1">
          <mxGeometry x="1490" y="4005.5" width="40" as="geometry" />
        </mxCell>
        <mxCell id="yI7PjoIeiXjcI_CWV4Vf-37" value="" style="edgeStyle=orthogonalEdgeStyle;rounded=0;orthogonalLoop=1;jettySize=auto;html=1;startArrow=classic;startFill=1;fontSize=19;entryX=0.5;entryY=0;entryDx=0;entryDy=0;" parent="1" source="yI7PjoIeiXjcI_CWV4Vf-38" target="yI7PjoIeiXjcI_CWV4Vf-22" edge="1">
          <mxGeometry relative="1" as="geometry">
            <Array as="points" />
          </mxGeometry>
        </mxCell>
        <mxCell id="yI7PjoIeiXjcI_CWV4Vf-38" value="" style="outlineConnect=0;dashed=0;verticalLabelPosition=bottom;verticalAlign=top;align=center;html=1;shape=mxgraph.aws3.redshift;fillColor=#2E73B8;gradientColor=none;fontSize=19;" parent="1" vertex="1">
          <mxGeometry x="1566.32" y="3940" width="180" height="160" as="geometry" />
        </mxCell>
        <mxCell id="yI7PjoIeiXjcI_CWV4Vf-39" value="Amazon DynamoDB" style="text;html=1;strokeColor=none;fillColor=none;align=center;verticalAlign=middle;whiteSpace=wrap;rounded=0;fontSize=19;" parent="1" vertex="1">
          <mxGeometry x="2210" y="4425.5" width="40" height="34.5" as="geometry" />
        </mxCell>
        <mxCell id="yI7PjoIeiXjcI_CWV4Vf-40" value="" style="edgeStyle=orthogonalEdgeStyle;rounded=0;orthogonalLoop=1;jettySize=auto;html=1;startArrow=classic;startFill=1;fontSize=19;" parent="1" source="yI7PjoIeiXjcI_CWV4Vf-42" edge="1">
          <mxGeometry relative="1" as="geometry">
            <mxPoint x="2520" y="4011" as="targetPoint" />
          </mxGeometry>
        </mxCell>
        <mxCell id="yI7PjoIeiXjcI_CWV4Vf-41" value="" style="edgeStyle=orthogonalEdgeStyle;rounded=0;orthogonalLoop=1;jettySize=auto;html=1;" parent="1" source="yI7PjoIeiXjcI_CWV4Vf-42" edge="1">
          <mxGeometry relative="1" as="geometry">
            <mxPoint x="1980" y="3780" as="targetPoint" />
            <Array as="points">
              <mxPoint x="2110" y="4011" />
              <mxPoint x="2110" y="3780" />
            </Array>
          </mxGeometry>
        </mxCell>
        <mxCell id="yI7PjoIeiXjcI_CWV4Vf-42" value="" style="outlineConnect=0;dashed=0;verticalLabelPosition=bottom;verticalAlign=top;align=center;html=1;shape=mxgraph.aws3.rds;fillColor=#2E73B8;gradientColor=none;fontSize=19;" parent="1" vertex="1">
          <mxGeometry x="2160" y="3931" width="140" height="160" as="geometry" />
        </mxCell>
        <mxCell id="yI7PjoIeiXjcI_CWV4Vf-43" value="Amazon RDS" style="text;html=1;strokeColor=none;fillColor=none;align=center;verticalAlign=middle;whiteSpace=wrap;rounded=0;fontSize=19;" parent="1" vertex="1">
          <mxGeometry x="2210" y="4111" width="40" height="34.5" as="geometry" />
        </mxCell>
        <mxCell id="yI7PjoIeiXjcI_CWV4Vf-44" value="" style="outlineConnect=0;fontColor=#232F3E;gradientColor=none;fillColor=#3334B9;strokeColor=none;dashed=0;verticalLabelPosition=bottom;verticalAlign=top;align=center;html=1;fontSize=12;fontStyle=0;aspect=fixed;pointerEvents=1;shape=mxgraph.aws4.rds_postgresql_instance;" parent="1" vertex="1">
          <mxGeometry x="1581.32" y="4260" width="150" height="150" as="geometry" />
        </mxCell>
        <mxCell id="yI7PjoIeiXjcI_CWV4Vf-45" value="NoSQL Database (TRANSACTIONAL)" style="text;html=1;strokeColor=none;fillColor=none;align=center;verticalAlign=middle;whiteSpace=wrap;rounded=0;fontSize=19;" parent="1" vertex="1">
          <mxGeometry x="2695" y="4430" width="40" height="20" as="geometry" />
        </mxCell>
        <mxCell id="yI7PjoIeiXjcI_CWV4Vf-46" style="edgeStyle=orthogonalEdgeStyle;rounded=0;orthogonalLoop=1;jettySize=auto;html=1;exitX=0.5;exitY=1;exitDx=0;exitDy=0;startArrow=classic;startFill=1;fontSize=19;" parent="1" source="yI7PjoIeiXjcI_CWV4Vf-43" target="yI7PjoIeiXjcI_CWV4Vf-43" edge="1">
          <mxGeometry relative="1" as="geometry" />
        </mxCell>
        <mxCell id="yI7PjoIeiXjcI_CWV4Vf-47" value="DATA WAREHOUSE" style="text;html=1;strokeColor=none;fillColor=none;align=center;verticalAlign=middle;whiteSpace=wrap;rounded=0;fontSize=19;" parent="1" vertex="1">
          <mxGeometry x="1706.32" y="4147.25" width="40" height="20" as="geometry" />
        </mxCell>
        <mxCell id="yI7PjoIeiXjcI_CWV4Vf-48" value="" style="edgeStyle=orthogonalEdgeStyle;rounded=0;orthogonalLoop=1;jettySize=auto;html=1;startArrow=classic;startFill=1;fontSize=19;endArrow=none;endFill=0;" parent="1" source="yI7PjoIeiXjcI_CWV4Vf-49" edge="1">
          <mxGeometry relative="1" as="geometry">
            <mxPoint x="2900" y="4345" as="targetPoint" />
            <Array as="points">
              <mxPoint x="2980" y="4180" />
              <mxPoint x="2980" y="4345" />
            </Array>
          </mxGeometry>
        </mxCell>
        <mxCell id="yI7PjoIeiXjcI_CWV4Vf-49" value="" style="outlineConnect=0;fontColor=#232F3E;gradientColor=#60A337;gradientDirection=north;fillColor=#277116;strokeColor=#ffffff;dashed=0;verticalLabelPosition=bottom;verticalAlign=top;align=center;html=1;fontSize=12;fontStyle=0;aspect=fixed;shape=mxgraph.aws4.resourceIcon;resIcon=mxgraph.aws4.backup;" parent="1" vertex="1">
          <mxGeometry x="3220" y="4100" width="160" height="160" as="geometry" />
        </mxCell>
        <mxCell id="yI7PjoIeiXjcI_CWV4Vf-50" value="" style="outlineConnect=0;fontColor=#232F3E;gradientColor=#60A337;gradientDirection=north;fillColor=#277116;strokeColor=#ffffff;dashed=0;verticalLabelPosition=bottom;verticalAlign=top;align=center;html=1;fontSize=12;fontStyle=0;aspect=fixed;shape=mxgraph.aws4.resourceIcon;resIcon=mxgraph.aws4.s3;" parent="1" vertex="1">
          <mxGeometry x="1110" y="4255.5" width="170" height="170" as="geometry" />
        </mxCell>
        <mxCell id="yI7PjoIeiXjcI_CWV4Vf-51" value="Amazon Backup" style="text;html=1;strokeColor=none;fillColor=none;align=center;verticalAlign=middle;whiteSpace=wrap;rounded=0;fontSize=19;" parent="1" vertex="1">
          <mxGeometry x="3420" y="4180" width="40" height="20" as="geometry" />
        </mxCell>
        <mxCell id="yI7PjoIeiXjcI_CWV4Vf-52" value="Amazon S3" style="text;html=1;strokeColor=none;fillColor=none;align=center;verticalAlign=middle;whiteSpace=wrap;rounded=0;fontSize=19;" parent="1" vertex="1">
          <mxGeometry x="1175" y="4450" width="40" height="20" as="geometry" />
        </mxCell>
        <mxCell id="yI7PjoIeiXjcI_CWV4Vf-53" style="edgeStyle=orthogonalEdgeStyle;rounded=0;orthogonalLoop=1;jettySize=auto;html=1;exitX=0.5;exitY=1;exitDx=0;exitDy=0;startArrow=none;startFill=0;endArrow=classic;endFill=1;fontSize=19;" parent="1" source="yI7PjoIeiXjcI_CWV4Vf-52" target="yI7PjoIeiXjcI_CWV4Vf-52" edge="1">
          <mxGeometry relative="1" as="geometry" />
        </mxCell>
        <mxCell id="yI7PjoIeiXjcI_CWV4Vf-54" value="Client" style="text;html=1;strokeColor=none;fillColor=none;align=center;verticalAlign=middle;whiteSpace=wrap;rounded=0;fontSize=19;" parent="1" vertex="1">
          <mxGeometry x="1740" y="990" width="40" height="20" as="geometry" />
        </mxCell>
        <mxCell id="yI7PjoIeiXjcI_CWV4Vf-55" style="edgeStyle=orthogonalEdgeStyle;rounded=0;orthogonalLoop=1;jettySize=auto;html=1;exitX=0.5;exitY=1;exitDx=0;exitDy=0;" parent="1" source="yI7PjoIeiXjcI_CWV4Vf-54" target="yI7PjoIeiXjcI_CWV4Vf-54" edge="1">
          <mxGeometry relative="1" as="geometry" />
        </mxCell>
        <mxCell id="yI7PjoIeiXjcI_CWV4Vf-56" value="" style="edgeStyle=orthogonalEdgeStyle;rounded=0;orthogonalLoop=1;jettySize=auto;html=1;startArrow=classic;startFill=1;endArrow=classic;endFill=1;fontSize=19;" parent="1" source="yI7PjoIeiXjcI_CWV4Vf-57" target="yI7PjoIeiXjcI_CWV4Vf-11" edge="1">
          <mxGeometry relative="1" as="geometry">
            <mxPoint x="1812" y="2220" as="targetPoint" />
            <Array as="points">
              <mxPoint x="1895" y="2920" />
              <mxPoint x="1895" y="2920" />
            </Array>
          </mxGeometry>
        </mxCell>
        <mxCell id="yI7PjoIeiXjcI_CWV4Vf-57" value="" style="aspect=fixed;pointerEvents=1;shadow=0;dashed=0;html=1;strokeColor=none;labelPosition=center;verticalLabelPosition=bottom;verticalAlign=top;align=center;fillColor=#00188D;shape=mxgraph.mscae.enterprise.application" parent="1" vertex="1">
          <mxGeometry x="1806.76" y="1410" width="176.47" height="120" as="geometry" />
        </mxCell>
        <mxCell id="yI7PjoIeiXjcI_CWV4Vf-58" value="Internet" style="text;html=1;strokeColor=none;fillColor=none;align=center;verticalAlign=middle;whiteSpace=wrap;rounded=0;fontSize=19;" parent="1" vertex="1">
          <mxGeometry x="2720" y="480" width="40" height="20" as="geometry" />
        </mxCell>
        <mxCell id="yI7PjoIeiXjcI_CWV4Vf-59" value="Rails application" style="text;html=1;strokeColor=none;fillColor=none;align=center;verticalAlign=middle;whiteSpace=wrap;rounded=0;fontSize=19;" parent="1" vertex="1">
          <mxGeometry x="1720" y="1443.65" width="40" height="16.35" as="geometry" />
        </mxCell>
        <mxCell id="yI7PjoIeiXjcI_CWV4Vf-60" value="&lt;font style=&quot;font-size: 39px&quot;&gt;Amazon API Gateway&lt;/font&gt;" style="text;html=1;align=center;verticalAlign=middle;whiteSpace=wrap;rounded=0;fontSize=39;fontStyle=1;fontColor=#FFFFFF;" parent="1" vertex="1">
          <mxGeometry x="2225.98" y="2790" width="360" height="294" as="geometry" />
        </mxCell>
        <mxCell id="yI7PjoIeiXjcI_CWV4Vf-61" value="" style="edgeStyle=orthogonalEdgeStyle;rounded=0;orthogonalLoop=1;jettySize=auto;html=1;startArrow=classic;startFill=1;endArrow=classic;endFill=1;" parent="1" source="yI7PjoIeiXjcI_CWV4Vf-62" edge="1">
          <mxGeometry relative="1" as="geometry">
            <mxPoint x="2710" y="2600" as="targetPoint" />
          </mxGeometry>
        </mxCell>
        <mxCell id="yI7PjoIeiXjcI_CWV4Vf-62" value="" style="aspect=fixed;html=1;points=[];align=center;image;fontSize=12;image=img/lib/azure2/general/Cache.svg;" parent="1" vertex="1">
          <mxGeometry x="3140" y="2492.5" width="215" height="215" as="geometry" />
        </mxCell>
        <mxCell id="yI7PjoIeiXjcI_CWV4Vf-143" value="" style="edgeStyle=orthogonalEdgeStyle;rounded=0;orthogonalLoop=1;jettySize=auto;html=1;fontSize=24;" parent="1" source="yI7PjoIeiXjcI_CWV4Vf-64" target="yI7PjoIeiXjcI_CWV4Vf-125" edge="1">
          <mxGeometry relative="1" as="geometry">
            <mxPoint x="1050" y="2611" as="targetPoint" />
            <Array as="points">
              <mxPoint x="1115" y="2608" />
            </Array>
          </mxGeometry>
        </mxCell>
        <mxCell id="yI7PjoIeiXjcI_CWV4Vf-64" value="" style="outlineConnect=0;fontColor=#232F3E;gradientColor=#F34482;gradientDirection=north;fillColor=#BC1356;strokeColor=#ffffff;dashed=0;verticalLabelPosition=bottom;verticalAlign=top;align=center;html=1;fontSize=12;fontStyle=0;aspect=fixed;shape=mxgraph.aws4.resourceIcon;resIcon=mxgraph.aws4.cloudwatch_2;" parent="1" vertex="1">
          <mxGeometry x="1020" y="2372.5" width="190" height="190" as="geometry" />
        </mxCell>
        <mxCell id="yI7PjoIeiXjcI_CWV4Vf-65" value="&lt;font color=&quot;#000000&quot; style=&quot;font-size: 34px;&quot;&gt;API Gateway cache&lt;/font&gt;" style="text;html=1;strokeColor=none;fillColor=none;align=center;verticalAlign=middle;whiteSpace=wrap;rounded=0;fontSize=34;fontColor=#FFFFFF;" parent="1" vertex="1">
          <mxGeometry x="3125" y="2750" width="330" height="20" as="geometry" />
        </mxCell>
        <mxCell id="yI7PjoIeiXjcI_CWV4Vf-66" value="&lt;font color=&quot;#000000&quot;&gt;Amazon Cloudwatch&lt;/font&gt;" style="text;html=1;strokeColor=none;fillColor=none;align=center;verticalAlign=middle;whiteSpace=wrap;rounded=0;fontSize=34;fontColor=#FFFFFF;" parent="1" vertex="1">
          <mxGeometry x="1005" y="2310" width="220" height="20" as="geometry" />
        </mxCell>
        <mxCell id="yI7PjoIeiXjcI_CWV4Vf-67" value="" style="edgeStyle=orthogonalEdgeStyle;rounded=0;orthogonalLoop=1;jettySize=auto;html=1;startArrow=none;startFill=0;endArrow=classic;endFill=1;fontSize=34;fontColor=#FFFFFF;entryX=0.5;entryY=0;entryDx=0;entryDy=0;" parent="1" source="yI7PjoIeiXjcI_CWV4Vf-70" target="yI7PjoIeiXjcI_CWV4Vf-3" edge="1">
          <mxGeometry relative="1" as="geometry">
            <mxPoint x="2490" y="840" as="targetPoint" />
            <Array as="points">
              <mxPoint x="2723" y="720" />
              <mxPoint x="2507" y="720" />
            </Array>
          </mxGeometry>
        </mxCell>
        <mxCell id="yI7PjoIeiXjcI_CWV4Vf-68" value="" style="edgeStyle=orthogonalEdgeStyle;rounded=0;orthogonalLoop=1;jettySize=auto;html=1;startArrow=none;startFill=0;endArrow=classic;endFill=1;fontSize=34;fontColor=#FFFFFF;" parent="1" source="yI7PjoIeiXjcI_CWV4Vf-70" target="yI7PjoIeiXjcI_CWV4Vf-2" edge="1">
          <mxGeometry relative="1" as="geometry" />
        </mxCell>
        <mxCell id="yI7PjoIeiXjcI_CWV4Vf-69" value="" style="edgeStyle=orthogonalEdgeStyle;rounded=0;orthogonalLoop=1;jettySize=auto;html=1;startArrow=none;startFill=0;endArrow=classic;endFill=1;fontSize=34;fontColor=#FFFFFF;entryX=0.25;entryY=0;entryDx=0;entryDy=0;" parent="1" source="yI7PjoIeiXjcI_CWV4Vf-70" target="yI7PjoIeiXjcI_CWV4Vf-13" edge="1">
          <mxGeometry relative="1" as="geometry">
            <mxPoint x="3390" y="916" as="targetPoint" />
          </mxGeometry>
        </mxCell>
        <mxCell id="yI7PjoIeiXjcI_CWV4Vf-70" value="" style="outlineConnect=0;fontColor=#232F3E;gradientColor=none;fillColor=#232F3E;strokeColor=none;dashed=0;verticalLabelPosition=bottom;verticalAlign=top;align=center;html=1;fontSize=12;fontStyle=0;aspect=fixed;pointerEvents=1;shape=mxgraph.aws4.internet_alt1;" parent="1" vertex="1">
          <mxGeometry x="2641.5" y="510" width="162.51" height="100" as="geometry" />
        </mxCell>
        <mxCell id="yI7PjoIeiXjcI_CWV4Vf-71" value="" style="edgeStyle=orthogonalEdgeStyle;rounded=0;orthogonalLoop=1;jettySize=auto;html=1;startArrow=classic;startFill=1;endArrow=classic;endFill=1;fontSize=34;fontColor=#FFFFFF;entryX=0.25;entryY=0;entryDx=0;entryDy=0;" parent="1" source="yI7PjoIeiXjcI_CWV4Vf-137" edge="1">
          <mxGeometry relative="1" as="geometry">
            <mxPoint x="2310" y="2380" as="targetPoint" />
            <Array as="points">
              <mxPoint x="2508" y="1650" />
              <mxPoint x="2310" y="1650" />
            </Array>
          </mxGeometry>
        </mxCell>
        <mxCell id="yI7PjoIeiXjcI_CWV4Vf-72" value="" style="aspect=fixed;html=1;points=[];align=center;image;fontSize=12;image=img/lib/mscae/App_Service_Mobile_App.svg;" parent="1" vertex="1">
          <mxGeometry x="2460.64" y="880" width="95.2" height="140" as="geometry" />
        </mxCell>
        <mxCell id="yI7PjoIeiXjcI_CWV4Vf-73" value="Mobile Client" style="text;html=1;strokeColor=none;fillColor=none;align=center;verticalAlign=middle;whiteSpace=wrap;rounded=0;fontSize=19;" parent="1" vertex="1">
          <mxGeometry x="2360" y="950" width="40" height="20" as="geometry" />
        </mxCell>
        <mxCell id="yI7PjoIeiXjcI_CWV4Vf-74" value="Mobile application" style="text;html=1;strokeColor=none;fillColor=none;align=center;verticalAlign=middle;whiteSpace=wrap;rounded=0;fontSize=19;" parent="1" vertex="1">
          <mxGeometry x="2340" y="1090" width="40" height="20" as="geometry" />
        </mxCell>
        <mxCell id="yI7PjoIeiXjcI_CWV4Vf-75" value="" style="outlineConnect=0;dashed=0;verticalLabelPosition=bottom;verticalAlign=top;align=center;html=1;shape=mxgraph.aws3.sensor;fillColor=#5294CF;gradientColor=none;fontSize=34;fontColor=#FFFFFF;" parent="1" vertex="1">
          <mxGeometry x="3380" y="925" width="110" height="130" as="geometry" />
        </mxCell>
        <mxCell id="yI7PjoIeiXjcI_CWV4Vf-76" value="&lt;font color=&quot;#000000&quot; style=&quot;font-size: 19px;&quot;&gt;Sensors&lt;/font&gt;" style="text;html=1;strokeColor=none;fillColor=none;align=center;verticalAlign=middle;whiteSpace=wrap;rounded=0;fontSize=19;fontColor=#FFFFFF;" parent="1" vertex="1">
          <mxGeometry x="3220" y="983.6500000000001" width="40" height="20" as="geometry" />
        </mxCell>
        <mxCell id="yI7PjoIeiXjcI_CWV4Vf-77" value="" style="edgeStyle=orthogonalEdgeStyle;rounded=0;orthogonalLoop=1;jettySize=auto;html=1;startArrow=classic;startFill=1;endArrow=classic;endFill=1;" parent="1" source="yI7PjoIeiXjcI_CWV4Vf-78" edge="1">
          <mxGeometry relative="1" as="geometry">
            <mxPoint x="2400" y="2990" as="targetPoint" />
            <Array as="points">
              <mxPoint x="2400" y="3080" />
            </Array>
          </mxGeometry>
        </mxCell>
        <mxCell id="D9-pF9VST5MEYYn45h6V-3" value="" style="edgeStyle=orthogonalEdgeStyle;rounded=0;orthogonalLoop=1;jettySize=auto;html=1;fontSize=24;entryX=1;entryY=0.75;entryDx=0;entryDy=0;" edge="1" parent="1" source="yI7PjoIeiXjcI_CWV4Vf-78" target="yI7PjoIeiXjcI_CWV4Vf-23">
          <mxGeometry relative="1" as="geometry">
            <mxPoint x="3790" y="3449" as="targetPoint" />
            <Array as="points">
              <mxPoint x="3760" y="4410" />
            </Array>
          </mxGeometry>
        </mxCell>
        <mxCell id="yI7PjoIeiXjcI_CWV4Vf-78" value="" style="outlineConnect=0;dashed=0;verticalLabelPosition=bottom;verticalAlign=top;align=center;html=1;shape=mxgraph.aws3.aws_iot;fillColor=#5294CF;gradientColor=none;fontSize=19;fontColor=#FFFFFF;" parent="1" vertex="1">
          <mxGeometry x="3606.5" y="2860" width="313.5" height="370" as="geometry" />
        </mxCell>
        <mxCell id="yI7PjoIeiXjcI_CWV4Vf-79" value="Amazon IoT Core" style="text;html=1;strokeColor=none;fillColor=none;align=center;verticalAlign=middle;whiteSpace=wrap;rounded=0;fontSize=19;" parent="1" vertex="1">
          <mxGeometry x="3703.25" y="2800" width="120" height="20" as="geometry" />
        </mxCell>
        <mxCell id="yI7PjoIeiXjcI_CWV4Vf-80" value="" style="edgeStyle=orthogonalEdgeStyle;rounded=0;orthogonalLoop=1;jettySize=auto;html=1;" parent="1" source="yI7PjoIeiXjcI_CWV4Vf-81" edge="1">
          <mxGeometry relative="1" as="geometry">
            <mxPoint x="2340" y="2380" as="targetPoint" />
            <Array as="points">
              <mxPoint x="3435" y="1980" />
              <mxPoint x="2340" y="1980" />
            </Array>
          </mxGeometry>
        </mxCell>
        <mxCell id="yI7PjoIeiXjcI_CWV4Vf-81" value="" style="aspect=fixed;perimeter=ellipsePerimeter;html=1;align=center;shadow=0;dashed=0;spacingTop=3;image;image=img/lib/active_directory/input_output_filter.svg;fontSize=19;fontColor=#000000;" parent="1" vertex="1">
          <mxGeometry x="3381.4" y="1346.35" width="107.2" height="160" as="geometry" />
        </mxCell>
        <mxCell id="yI7PjoIeiXjcI_CWV4Vf-82" value="Inputs (pressure, temperature, weight)" style="text;html=1;strokeColor=none;fillColor=none;align=center;verticalAlign=middle;whiteSpace=wrap;rounded=0;fontSize=19;fontColor=#000000;" parent="1" vertex="1">
          <mxGeometry x="3270" y="1410" width="40" height="20" as="geometry" />
        </mxCell>
        <mxCell id="yI7PjoIeiXjcI_CWV4Vf-83" value="" style="edgeStyle=orthogonalEdgeStyle;rounded=0;orthogonalLoop=1;jettySize=auto;html=1;startArrow=none;startFill=0;endArrow=classic;endFill=1;fontSize=19;fontColor=#000000;" parent="1" source="yI7PjoIeiXjcI_CWV4Vf-84" edge="1">
          <mxGeometry relative="1" as="geometry">
            <mxPoint x="3428.5714285714284" y="865" as="targetPoint" />
          </mxGeometry>
        </mxCell>
        <mxCell id="yI7PjoIeiXjcI_CWV4Vf-84" value="" style="aspect=fixed;html=1;points=[];align=center;image;fontSize=12;image=img/lib/mscae/Device_Provisioning_Services.svg;" parent="1" vertex="1">
          <mxGeometry x="3750" y="375" width="144" height="150" as="geometry" />
        </mxCell>
        <mxCell id="yI7PjoIeiXjcI_CWV4Vf-85" value="IoT &lt;br&gt;Devices" style="text;html=1;strokeColor=none;fillColor=none;align=center;verticalAlign=middle;whiteSpace=wrap;rounded=0;fontSize=19;fontColor=#000000;" parent="1" vertex="1">
          <mxGeometry x="3790" y="320" width="40" height="20" as="geometry" />
        </mxCell>
        <mxCell id="yI7PjoIeiXjcI_CWV4Vf-86" value="" style="edgeStyle=orthogonalEdgeStyle;rounded=0;orthogonalLoop=1;jettySize=auto;html=1;startArrow=none;startFill=0;endArrow=classic;endFill=1;fontSize=19;fontColor=#000000;" parent="1" source="yI7PjoIeiXjcI_CWV4Vf-87" edge="1">
          <mxGeometry relative="1" as="geometry">
            <mxPoint x="3830" y="520" as="targetPoint" />
          </mxGeometry>
        </mxCell>
        <mxCell id="yI7PjoIeiXjcI_CWV4Vf-87" value="" style="outlineConnect=0;dashed=0;verticalLabelPosition=bottom;verticalAlign=top;align=center;html=1;shape=mxgraph.aws3.action;fillColor=#5294CF;gradientColor=none;fontSize=19;fontColor=#000000;" parent="1" vertex="1">
          <mxGeometry x="3770" y="1436" width="120" height="113.6" as="geometry" />
        </mxCell>
        <mxCell id="yI7PjoIeiXjcI_CWV4Vf-88" value="IoT Actions" style="text;html=1;strokeColor=none;fillColor=none;align=center;verticalAlign=middle;whiteSpace=wrap;rounded=0;fontSize=19;fontColor=#000000;" parent="1" vertex="1">
          <mxGeometry x="3920" y="1482.8" width="40" height="20" as="geometry" />
        </mxCell>
        <mxCell id="yI7PjoIeiXjcI_CWV4Vf-89" value="" style="edgeStyle=orthogonalEdgeStyle;rounded=0;orthogonalLoop=1;jettySize=auto;html=1;" parent="1" target="yI7PjoIeiXjcI_CWV4Vf-38" edge="1">
          <mxGeometry relative="1" as="geometry">
            <mxPoint x="1717.5" y="3780" as="targetPoint" />
            <mxPoint x="1795" y="3780" as="sourcePoint" />
          </mxGeometry>
        </mxCell>
        <mxCell id="yI7PjoIeiXjcI_CWV4Vf-91" value="Amazon Glue&amp;nbsp;&lt;br&gt;(TRANSACTIONAL =&amp;gt; DECISIONAL)" style="text;html=1;strokeColor=none;fillColor=none;align=center;verticalAlign=middle;whiteSpace=wrap;rounded=0;" parent="1" vertex="1">
          <mxGeometry x="1930" y="3650" width="230" height="20" as="geometry" />
        </mxCell>
        <mxCell id="yI7PjoIeiXjcI_CWV4Vf-92" value="CLOUD BACKUP" style="text;html=1;strokeColor=none;fillColor=none;align=center;verticalAlign=middle;whiteSpace=wrap;rounded=0;" parent="1" vertex="1">
          <mxGeometry x="1350" y="4360" width="40" height="20" as="geometry" />
        </mxCell>
        <mxCell id="yI7PjoIeiXjcI_CWV4Vf-93" value="CLOUD BACKUP" style="text;html=1;strokeColor=none;fillColor=none;align=center;verticalAlign=middle;whiteSpace=wrap;rounded=0;" parent="1" vertex="1">
          <mxGeometry x="3090" y="4200" width="40" height="20" as="geometry" />
        </mxCell>
        <mxCell id="yI7PjoIeiXjcI_CWV4Vf-94" value="" style="edgeStyle=orthogonalEdgeStyle;rounded=0;orthogonalLoop=1;jettySize=auto;html=1;" parent="1" source="yI7PjoIeiXjcI_CWV4Vf-95" target="yI7PjoIeiXjcI_CWV4Vf-97" edge="1">
          <mxGeometry relative="1" as="geometry" />
        </mxCell>
        <mxCell id="yI7PjoIeiXjcI_CWV4Vf-95" value="" style="outlineConnect=0;fontColor=#232F3E;gradientColor=#4AB29A;gradientDirection=north;fillColor=#116D5B;strokeColor=#ffffff;dashed=0;verticalLabelPosition=bottom;verticalAlign=top;align=center;html=1;fontSize=12;fontStyle=0;aspect=fixed;shape=mxgraph.aws4.resourceIcon;resIcon=mxgraph.aws4.forecast;" parent="1" vertex="1">
          <mxGeometry x="1900.28" y="4790" width="190" height="190" as="geometry" />
        </mxCell>
        <mxCell id="yI7PjoIeiXjcI_CWV4Vf-96" value="" style="edgeStyle=orthogonalEdgeStyle;rounded=0;orthogonalLoop=1;jettySize=auto;html=1;" parent="1" source="yI7PjoIeiXjcI_CWV4Vf-97" target="yI7PjoIeiXjcI_CWV4Vf-98" edge="1">
          <mxGeometry relative="1" as="geometry" />
        </mxCell>
        <mxCell id="yI7PjoIeiXjcI_CWV4Vf-97" value="" style="outlineConnect=0;fontColor=#232F3E;gradientColor=#4AB29A;gradientDirection=north;fillColor=#116D5B;strokeColor=#ffffff;dashed=0;verticalLabelPosition=bottom;verticalAlign=top;align=center;html=1;fontSize=12;fontStyle=0;aspect=fixed;shape=mxgraph.aws4.resourceIcon;resIcon=mxgraph.aws4.forecast;" parent="1" vertex="1">
          <mxGeometry x="2150" y="4790" width="190" height="190" as="geometry" />
        </mxCell>
        <mxCell id="D9-pF9VST5MEYYn45h6V-12" value="" style="edgeStyle=orthogonalEdgeStyle;rounded=0;orthogonalLoop=1;jettySize=auto;html=1;fontSize=24;" edge="1" parent="1" source="yI7PjoIeiXjcI_CWV4Vf-98" target="D9-pF9VST5MEYYn45h6V-4">
          <mxGeometry relative="1" as="geometry">
            <mxPoint x="2695" y="4885" as="targetPoint" />
            <Array as="points">
              <mxPoint x="2680" y="4885" />
              <mxPoint x="2680" y="4600" />
              <mxPoint x="1880" y="4600" />
            </Array>
          </mxGeometry>
        </mxCell>
        <mxCell id="yI7PjoIeiXjcI_CWV4Vf-98" value="" style="outlineConnect=0;fontColor=#232F3E;gradientColor=#4AB29A;gradientDirection=north;fillColor=#116D5B;strokeColor=#ffffff;dashed=0;verticalLabelPosition=bottom;verticalAlign=top;align=center;html=1;fontSize=12;fontStyle=0;aspect=fixed;shape=mxgraph.aws4.resourceIcon;resIcon=mxgraph.aws4.forecast;" parent="1" vertex="1">
          <mxGeometry x="2390" y="4790" width="190" height="190" as="geometry" />
        </mxCell>
        <mxCell id="yI7PjoIeiXjcI_CWV4Vf-99" value="Load data" style="text;html=1;strokeColor=none;fillColor=none;align=center;verticalAlign=middle;whiteSpace=wrap;rounded=0;" parent="1" vertex="1">
          <mxGeometry x="1950" y="5000" width="80" height="20" as="geometry" />
        </mxCell>
        <mxCell id="yI7PjoIeiXjcI_CWV4Vf-100" value="Train model" style="text;html=1;strokeColor=none;fillColor=none;align=center;verticalAlign=middle;whiteSpace=wrap;rounded=0;" parent="1" vertex="1">
          <mxGeometry x="2220" y="5000" width="40" height="20" as="geometry" />
        </mxCell>
        <mxCell id="yI7PjoIeiXjcI_CWV4Vf-101" value="Generate forecast" style="text;html=1;strokeColor=none;fillColor=none;align=center;verticalAlign=middle;whiteSpace=wrap;rounded=0;" parent="1" vertex="1">
          <mxGeometry x="2457" y="5000" width="75" height="20" as="geometry" />
        </mxCell>
        <mxCell id="yI7PjoIeiXjcI_CWV4Vf-102" value="&lt;span style=&quot;font-size: 32px&quot;&gt;&lt;b&gt;Amazon Forecast&lt;/b&gt;&lt;/span&gt;" style="text;html=1;strokeColor=none;fillColor=none;align=center;verticalAlign=middle;whiteSpace=wrap;rounded=0;" parent="1" vertex="1">
          <mxGeometry x="2050" y="4730" width="320" height="20" as="geometry" />
        </mxCell>
        <mxCell id="yI7PjoIeiXjcI_CWV4Vf-103" value="" style="outlineConnect=0;fontColor=#232F3E;gradientColor=#945DF2;gradientDirection=north;fillColor=#5A30B5;strokeColor=#ffffff;dashed=0;verticalLabelPosition=bottom;verticalAlign=top;align=center;html=1;fontSize=12;fontStyle=0;aspect=fixed;shape=mxgraph.aws4.resourceIcon;resIcon=mxgraph.aws4.quicksight;" parent="1" vertex="1">
          <mxGeometry x="3010" y="4790" width="200" height="200" as="geometry" />
        </mxCell>
        <mxCell id="yI7PjoIeiXjcI_CWV4Vf-104" value="Amazon QuickSight&amp;nbsp;" style="text;html=1;strokeColor=none;fillColor=none;align=center;verticalAlign=middle;whiteSpace=wrap;rounded=0;" parent="1" vertex="1">
          <mxGeometry x="3050" y="4760" width="110" height="20" as="geometry" />
        </mxCell>
        <mxCell id="yI7PjoIeiXjcI_CWV4Vf-106" value="" style="edgeStyle=orthogonalEdgeStyle;rounded=0;orthogonalLoop=1;jettySize=auto;html=1;" parent="1" source="yI7PjoIeiXjcI_CWV4Vf-107" target="yI7PjoIeiXjcI_CWV4Vf-103" edge="1">
          <mxGeometry relative="1" as="geometry">
            <mxPoint x="930" y="1110" as="targetPoint" />
            <Array as="points">
              <mxPoint x="140" y="1110" />
              <mxPoint x="140" y="5120" />
              <mxPoint x="2904" y="5120" />
            </Array>
          </mxGeometry>
        </mxCell>
        <mxCell id="yI7PjoIeiXjcI_CWV4Vf-107" value="" style="fillColor=#EFF0F3;strokeColor=none;dashed=0;verticalAlign=top;fontStyle=0;fontColor=#232F3D;" parent="1" vertex="1">
          <mxGeometry x="1010" y="1010" width="396.19" height="200" as="geometry" />
        </mxCell>
        <mxCell id="yI7PjoIeiXjcI_CWV4Vf-108" value="" style="edgeStyle=orthogonalEdgeStyle;rounded=0;orthogonalLoop=1;jettySize=auto;html=1;exitX=0.526;exitY=1.034;exitDx=0;exitDy=0;exitPerimeter=0;" parent="1" source="yI7PjoIeiXjcI_CWV4Vf-107" edge="1">
          <mxGeometry relative="1" as="geometry">
            <mxPoint x="989" y="2570" as="targetPoint" />
            <Array as="points">
              <mxPoint x="1218" y="1240" />
              <mxPoint x="989" y="1240" />
            </Array>
          </mxGeometry>
        </mxCell>
        <mxCell id="yI7PjoIeiXjcI_CWV4Vf-109" value="" style="outlineConnect=0;fontColor=#232F3E;gradientColor=none;fillColor=#232F3E;strokeColor=none;dashed=0;verticalLabelPosition=bottom;verticalAlign=top;align=center;html=1;fontSize=12;fontStyle=0;aspect=fixed;pointerEvents=1;shape=mxgraph.aws4.user;" parent="1" vertex="1">
          <mxGeometry x="1164.0900000000001" y="1043.6599999999999" width="108" height="108" as="geometry" />
        </mxCell>
        <mxCell id="yI7PjoIeiXjcI_CWV4Vf-110" value="Developers" style="text;html=1;strokeColor=none;fillColor=none;align=center;verticalAlign=middle;whiteSpace=wrap;rounded=0;fontSize=19;" parent="1" vertex="1">
          <mxGeometry x="1080" y="1098.65" width="40" height="20" as="geometry" />
        </mxCell>
        <mxCell id="yI7PjoIeiXjcI_CWV4Vf-111" value="" style="edgeStyle=orthogonalEdgeStyle;rounded=0;orthogonalLoop=1;jettySize=auto;html=1;startArrow=classic;startFill=1;" parent="1" source="yI7PjoIeiXjcI_CWV4Vf-112" target="yI7PjoIeiXjcI_CWV4Vf-18" edge="1">
          <mxGeometry relative="1" as="geometry">
            <mxPoint x="1820" y="2890" as="targetPoint" />
            <Array as="points">
              <mxPoint x="1780" y="2025" />
              <mxPoint x="1780" y="2410" />
            </Array>
          </mxGeometry>
        </mxCell>
        <mxCell id="yI7PjoIeiXjcI_CWV4Vf-112" value="" style="outlineConnect=0;fontColor=#232F3E;gradientColor=#F78E04;gradientDirection=north;fillColor=#D05C17;strokeColor=#ffffff;dashed=0;verticalLabelPosition=bottom;verticalAlign=top;align=center;html=1;fontSize=12;fontStyle=0;aspect=fixed;shape=mxgraph.aws4.resourceIcon;resIcon=mxgraph.aws4.managed_blockchain;" parent="1" vertex="1">
          <mxGeometry x="390" y="1830" width="310" height="310" as="geometry" />
        </mxCell>
        <mxCell id="yI7PjoIeiXjcI_CWV4Vf-113" value="&lt;font style=&quot;font-size: 24px;&quot;&gt;Amazon Managed Blockchain&lt;/font&gt;" style="text;html=1;strokeColor=none;fillColor=none;align=center;verticalAlign=middle;whiteSpace=wrap;rounded=0;fontSize=24;" parent="1" vertex="1">
          <mxGeometry x="410" y="2160" width="245" height="20" as="geometry" />
        </mxCell>
        <mxCell id="yI7PjoIeiXjcI_CWV4Vf-114" value="" style="edgeStyle=orthogonalEdgeStyle;rounded=0;orthogonalLoop=1;jettySize=auto;html=1;fontSize=22;" parent="1" source="yI7PjoIeiXjcI_CWV4Vf-115" target="yI7PjoIeiXjcI_CWV4Vf-119" edge="1">
          <mxGeometry relative="1" as="geometry">
            <Array as="points">
              <mxPoint x="990" y="3060" />
            </Array>
          </mxGeometry>
        </mxCell>
        <mxCell id="yI7PjoIeiXjcI_CWV4Vf-115" value="" style="outlineConnect=0;fontColor=#232F3E;gradientColor=#4D72F3;gradientDirection=north;fillColor=#3334B9;strokeColor=#ffffff;dashed=0;verticalLabelPosition=bottom;verticalAlign=top;align=center;html=1;fontSize=12;fontStyle=0;aspect=fixed;shape=mxgraph.aws4.resourceIcon;resIcon=mxgraph.aws4.codecommit;" parent="1" vertex="1">
          <mxGeometry x="890" y="2720" width="200" height="200" as="geometry" />
        </mxCell>
        <mxCell id="yI7PjoIeiXjcI_CWV4Vf-116" value="&lt;span style=&quot;color: rgb(0 , 0 , 0) ; font-family: &amp;#34;helvetica&amp;#34; ; font-style: normal ; font-weight: 400 ; letter-spacing: normal ; text-indent: 0px ; text-transform: none ; word-spacing: 0px ; background-color: rgb(248 , 249 , 250) ; display: inline ; float: none&quot;&gt;&lt;font style=&quot;font-size: 28px&quot;&gt;AWS CodeCommit&lt;/font&gt;&lt;/span&gt;" style="text;whiteSpace=wrap;html=1;align=center;fontSize=28;" parent="1" vertex="1">
          <mxGeometry x="700" y="2780" width="200" height="60" as="geometry" />
        </mxCell>
        <mxCell id="yI7PjoIeiXjcI_CWV4Vf-117" value="" style="outlineConnect=0;fontColor=#232F3E;gradientColor=#4D72F3;gradientDirection=north;fillColor=#3334B9;strokeColor=#ffffff;dashed=0;verticalLabelPosition=bottom;verticalAlign=top;align=center;html=1;fontSize=12;fontStyle=0;aspect=fixed;shape=mxgraph.aws4.resourceIcon;resIcon=mxgraph.aws4.codepipeline;" parent="1" vertex="1">
          <mxGeometry x="721" y="2672" width="68" height="68" as="geometry" />
        </mxCell>
        <mxCell id="yI7PjoIeiXjcI_CWV4Vf-118" value="" style="edgeStyle=orthogonalEdgeStyle;rounded=0;orthogonalLoop=1;jettySize=auto;html=1;" parent="1" source="yI7PjoIeiXjcI_CWV4Vf-119" target="yI7PjoIeiXjcI_CWV4Vf-123" edge="1">
          <mxGeometry relative="1" as="geometry">
            <mxPoint x="1356.166666666667" y="2919.9999999999995" as="targetPoint" />
            <Array as="points">
              <mxPoint x="1280" y="3060" />
            </Array>
          </mxGeometry>
        </mxCell>
        <mxCell id="yI7PjoIeiXjcI_CWV4Vf-119" value="" style="outlineConnect=0;fontColor=#232F3E;gradientColor=#4D72F3;gradientDirection=north;fillColor=#3334B9;strokeColor=#ffffff;dashed=0;verticalLabelPosition=bottom;verticalAlign=top;align=center;html=1;fontSize=12;fontStyle=0;aspect=fixed;shape=mxgraph.aws4.resourceIcon;resIcon=mxgraph.aws4.codebuild;" parent="1" vertex="1">
          <mxGeometry x="1030" y="2963" width="200" height="200" as="geometry" />
        </mxCell>
        <mxCell id="yI7PjoIeiXjcI_CWV4Vf-120" value="&lt;span style=&quot;color: rgb(0 , 0 , 0) ; font-family: &amp;#34;helvetica&amp;#34; ; font-style: normal ; font-weight: 400 ; letter-spacing: normal ; text-align: center ; text-indent: 0px ; text-transform: none ; word-spacing: 0px ; background-color: rgb(248 , 249 , 250) ; display: inline ; float: none&quot;&gt;&lt;font style=&quot;font-size: 18px&quot;&gt;AWS CodePipeline&lt;/font&gt;&lt;/span&gt;" style="text;whiteSpace=wrap;html=1;" parent="1" vertex="1">
          <mxGeometry x="789" y="2690" width="300" height="60" as="geometry" />
        </mxCell>
        <mxCell id="yI7PjoIeiXjcI_CWV4Vf-121" value="&lt;span style=&quot;color: rgb(0 , 0 , 0) ; font-family: &amp;#34;helvetica&amp;#34; ; font-style: normal ; font-weight: 400 ; letter-spacing: normal ; text-align: center ; text-indent: 0px ; text-transform: none ; word-spacing: 0px ; background-color: rgb(248 , 249 , 250) ; display: inline ; float: none&quot;&gt;&lt;font style=&quot;font-size: 28px&quot;&gt;AWS CodeBuild&lt;/font&gt;&lt;br&gt;&lt;/span&gt;" style="text;whiteSpace=wrap;html=1;" parent="1" vertex="1">
          <mxGeometry x="1024" y="3163" width="236" height="40" as="geometry" />
        </mxCell>
        <mxCell id="yI7PjoIeiXjcI_CWV4Vf-122" value="" style="edgeStyle=orthogonalEdgeStyle;rounded=0;orthogonalLoop=1;jettySize=auto;html=1;" parent="1" source="yI7PjoIeiXjcI_CWV4Vf-123" target="yI7PjoIeiXjcI_CWV4Vf-18" edge="1">
          <mxGeometry relative="1" as="geometry">
            <mxPoint x="1490" y="2560" as="targetPoint" />
            <Array as="points">
              <mxPoint x="1280" y="2560" />
            </Array>
          </mxGeometry>
        </mxCell>
        <mxCell id="yI7PjoIeiXjcI_CWV4Vf-123" value="" style="outlineConnect=0;fontColor=#232F3E;gradientColor=#4D72F3;gradientDirection=north;fillColor=#3334B9;strokeColor=#ffffff;dashed=0;verticalLabelPosition=bottom;verticalAlign=top;align=center;html=1;fontSize=12;fontStyle=0;aspect=fixed;shape=mxgraph.aws4.resourceIcon;resIcon=mxgraph.aws4.codedeploy;" parent="1" vertex="1">
          <mxGeometry x="1130" y="2720" width="200" height="200" as="geometry" />
        </mxCell>
        <mxCell id="yI7PjoIeiXjcI_CWV4Vf-124" value="&lt;span style=&quot;color: rgb(0 , 0 , 0) ; font-family: &amp;#34;helvetica&amp;#34; ; font-style: normal ; font-weight: 400 ; letter-spacing: normal ; text-indent: 0px ; text-transform: none ; word-spacing: 0px ; background-color: rgb(248 , 249 , 250) ; display: inline ; float: none&quot;&gt;&lt;font style=&quot;font-size: 28px&quot;&gt;AWS CodeDeploy&lt;/font&gt;&lt;/span&gt;" style="text;whiteSpace=wrap;html=1;align=center;" parent="1" vertex="1">
          <mxGeometry x="1380" y="2790" width="60" height="40" as="geometry" />
        </mxCell>
        <mxCell id="yI7PjoIeiXjcI_CWV4Vf-146" value="" style="edgeStyle=orthogonalEdgeStyle;rounded=0;orthogonalLoop=1;jettySize=auto;html=1;fontSize=24;" parent="1" source="yI7PjoIeiXjcI_CWV4Vf-125" edge="1">
          <mxGeometry relative="1" as="geometry">
            <mxPoint x="989" y="2661" as="targetPoint" />
            <Array as="points">
              <mxPoint x="989" y="2661" />
            </Array>
          </mxGeometry>
        </mxCell>
        <mxCell id="yI7PjoIeiXjcI_CWV4Vf-125" value="" style="outlineConnect=0;fontColor=#232F3E;gradientColor=#4D72F3;gradientDirection=north;fillColor=#3334B9;strokeColor=#ffffff;dashed=0;verticalLabelPosition=bottom;verticalAlign=top;align=center;html=1;fontSize=12;fontStyle=0;aspect=fixed;shape=mxgraph.aws4.resourceIcon;resIcon=mxgraph.aws4.codestar;" parent="1" vertex="1">
          <mxGeometry x="954" y="2572.5" width="70" height="70" as="geometry" />
        </mxCell>
        <mxCell id="yI7PjoIeiXjcI_CWV4Vf-126" value="&lt;span style=&quot;color: rgb(0 , 0 , 0) ; font-family: &amp;#34;helvetica&amp;#34; ; font-size: 18px ; font-style: normal ; font-weight: 400 ; letter-spacing: normal ; text-indent: 0px ; text-transform: none ; word-spacing: 0px ; background-color: rgb(248 , 249 , 250) ; display: inline ; float: none&quot;&gt;AWS CodeStar&lt;/span&gt;" style="text;whiteSpace=wrap;html=1;fontSize=22;align=center;" parent="1" vertex="1">
          <mxGeometry x="818" y="2587.5" width="130" height="40" as="geometry" />
        </mxCell>
        <mxCell id="yI7PjoIeiXjcI_CWV4Vf-127" style="edgeStyle=orthogonalEdgeStyle;rounded=0;orthogonalLoop=1;jettySize=auto;html=1;exitX=0.5;exitY=1;exitDx=0;exitDy=0;fontSize=22;" parent="1" source="yI7PjoIeiXjcI_CWV4Vf-66" target="yI7PjoIeiXjcI_CWV4Vf-66" edge="1">
          <mxGeometry relative="1" as="geometry" />
        </mxCell>
        <mxCell id="yI7PjoIeiXjcI_CWV4Vf-128" value="Suppliers, subcontractors, other departments" style="text;html=1;strokeColor=none;fillColor=none;align=center;verticalAlign=middle;whiteSpace=wrap;rounded=0;fontSize=19;" parent="1" vertex="1">
          <mxGeometry x="520" y="896" width="160" height="20" as="geometry" />
        </mxCell>
        <mxCell id="yI7PjoIeiXjcI_CWV4Vf-129" value="" style="edgeStyle=orthogonalEdgeStyle;rounded=0;orthogonalLoop=1;jettySize=auto;html=1;startArrow=classic;startFill=1;" parent="1" source="yI7PjoIeiXjcI_CWV4Vf-130" target="yI7PjoIeiXjcI_CWV4Vf-112" edge="1">
          <mxGeometry relative="1" as="geometry">
            <mxPoint x="540" y="1750" as="targetPoint" />
            <Array as="points">
              <mxPoint x="540" y="1780" />
              <mxPoint x="540" y="1780" />
            </Array>
          </mxGeometry>
        </mxCell>
        <mxCell id="yI7PjoIeiXjcI_CWV4Vf-130" value="" style="gradientDirection=north;outlineConnect=0;fontColor=#232F3E;gradientColor=#505863;fillColor=#1E262E;strokeColor=#ffffff;dashed=0;verticalLabelPosition=bottom;verticalAlign=top;align=center;html=1;fontSize=12;fontStyle=0;aspect=fixed;shape=mxgraph.aws4.resourceIcon;resIcon=mxgraph.aws4.marketplace;" parent="1" vertex="1">
          <mxGeometry x="460" y="1460" width="160" height="160" as="geometry" />
        </mxCell>
        <mxCell id="yI7PjoIeiXjcI_CWV4Vf-131" value="" style="verticalLabelPosition=bottom;html=1;fillColor=#282828;strokeColor=none;verticalAlign=top;pointerEvents=1;align=center;shape=mxgraph.cisco_safe.people_places_things_icons.icon1;" parent="1" vertex="1">
          <mxGeometry x="818" y="838.1700000000001" width="110" height="113.65" as="geometry" />
        </mxCell>
        <mxCell id="yI7PjoIeiXjcI_CWV4Vf-132" value="" style="verticalLabelPosition=bottom;html=1;fillColor=#282828;strokeColor=none;verticalAlign=top;pointerEvents=1;align=center;shape=mxgraph.cisco_safe.people_places_things_icons.icon5;" parent="1" vertex="1">
          <mxGeometry x="700" y="840" width="110" height="110" as="geometry" />
        </mxCell>
        <mxCell id="yI7PjoIeiXjcI_CWV4Vf-133" value="" style="verticalLabelPosition=bottom;html=1;fillColor=#282828;strokeColor=none;verticalAlign=top;pointerEvents=1;align=center;shape=mxgraph.cisco_safe.people_places_things_icons.icon9;" parent="1" vertex="1">
          <mxGeometry x="340" y="855.5" width="110" height="101" as="geometry" />
        </mxCell>
        <mxCell id="yI7PjoIeiXjcI_CWV4Vf-134" value="Non-developer employees" style="text;html=1;strokeColor=none;fillColor=none;align=center;verticalAlign=middle;whiteSpace=wrap;rounded=0;fontSize=19;" parent="1" vertex="1">
          <mxGeometry x="200" y="906" width="140" height="20" as="geometry" />
        </mxCell>
        <mxCell id="yI7PjoIeiXjcI_CWV4Vf-135" value="Marketplace&amp;nbsp;" style="text;html=1;strokeColor=none;fillColor=none;align=center;verticalAlign=middle;whiteSpace=wrap;rounded=0;fontSize=15;" parent="1" vertex="1">
          <mxGeometry x="390" y="1495" width="40" height="70" as="geometry" />
        </mxCell>
        <mxCell id="yI7PjoIeiXjcI_CWV4Vf-136" value="RocketElevators - AWS Cloud Infrastructure&amp;nbsp;" style="text;html=1;align=center;verticalAlign=middle;resizable=0;points=[];autosize=1;fontSize=80;fontStyle=5" parent="1" vertex="1">
          <mxGeometry x="1095" y="40" width="1710" height="100" as="geometry" />
        </mxCell>
        <mxCell id="yI7PjoIeiXjcI_CWV4Vf-137" value="" style="aspect=fixed;pointerEvents=1;shadow=0;dashed=0;html=1;strokeColor=none;labelPosition=center;verticalLabelPosition=bottom;verticalAlign=top;align=center;fillColor=#00188D;shape=mxgraph.mscae.enterprise.application" parent="1" vertex="1">
          <mxGeometry x="2420" y="1050" width="176.47" height="120" as="geometry" />
        </mxCell>
        <mxCell id="yI7PjoIeiXjcI_CWV4Vf-138" value="" style="edgeStyle=orthogonalEdgeStyle;rounded=0;orthogonalLoop=1;jettySize=auto;html=1;startArrow=none;startFill=0;endArrow=classic;endFill=1;fontSize=34;fontColor=#FFFFFF;" parent="1" source="yI7PjoIeiXjcI_CWV4Vf-72" target="yI7PjoIeiXjcI_CWV4Vf-137" edge="1">
          <mxGeometry relative="1" as="geometry">
            <mxPoint x="2498.2300000000005" y="1360" as="targetPoint" />
            <mxPoint x="2498.2857142857147" y="1080" as="sourcePoint" />
          </mxGeometry>
        </mxCell>
        <mxCell id="D9-pF9VST5MEYYn45h6V-8" value="" style="edgeStyle=orthogonalEdgeStyle;rounded=0;orthogonalLoop=1;jettySize=auto;html=1;fontSize=24;" edge="1" parent="1" source="D9-pF9VST5MEYYn45h6V-4" target="D9-pF9VST5MEYYn45h6V-5">
          <mxGeometry relative="1" as="geometry">
            <mxPoint x="1887.4999999999995" y="3525" as="targetPoint" />
            <Array as="points">
              <mxPoint x="1888" y="3450" />
              <mxPoint x="1110" y="3450" />
            </Array>
          </mxGeometry>
        </mxCell>
        <mxCell id="D9-pF9VST5MEYYn45h6V-4" value="" style="outlineConnect=0;dashed=0;verticalLabelPosition=bottom;verticalAlign=top;align=center;html=1;shape=mxgraph.aws3.glue;fillColor=#F58534;gradientColor=none;dashPattern=1 1;fontSize=24;" vertex="1" parent="1">
          <mxGeometry x="1815.9199999999998" y="3670" width="143.16" height="190" as="geometry" />
        </mxCell>
        <mxCell id="D9-pF9VST5MEYYn45h6V-10" value="" style="edgeStyle=orthogonalEdgeStyle;rounded=0;orthogonalLoop=1;jettySize=auto;html=1;fontSize=24;" edge="1" parent="1" source="D9-pF9VST5MEYYn45h6V-5" target="yI7PjoIeiXjcI_CWV4Vf-95">
          <mxGeometry relative="1" as="geometry">
            <mxPoint x="950" y="3721.5" as="targetPoint" />
            <Array as="points">
              <mxPoint x="920" y="3722" />
              <mxPoint x="920" y="4885" />
            </Array>
          </mxGeometry>
        </mxCell>
        <mxCell id="D9-pF9VST5MEYYn45h6V-5" value="" style="outlineConnect=0;dashed=0;verticalLabelPosition=bottom;verticalAlign=top;align=center;html=1;shape=mxgraph.aws3.s3;fillColor=#E05243;gradientColor=none;dashPattern=1 1;fontSize=24;" vertex="1" parent="1">
          <mxGeometry x="1040" y="3650" width="140" height="143" as="geometry" />
        </mxCell>
        <mxCell id="D9-pF9VST5MEYYn45h6V-6" value="Amazon S3&amp;nbsp;" style="text;html=1;strokeColor=none;fillColor=none;align=center;verticalAlign=middle;whiteSpace=wrap;rounded=0;dashed=1;dashPattern=1 1;fontSize=24;" vertex="1" parent="1">
          <mxGeometry x="1095" y="3830" width="40" height="20" as="geometry" />
        </mxCell>
        <mxCell id="D9-pF9VST5MEYYn45h6V-18" value="IoT unstructured data" style="text;html=1;strokeColor=none;fillColor=none;align=center;verticalAlign=middle;whiteSpace=wrap;rounded=0;dashed=1;dashPattern=1 1;fontSize=24;" vertex="1" parent="1">
          <mxGeometry x="3825" y="3840" width="40" height="20" as="geometry" />
        </mxCell>
        <mxCell id="D9-pF9VST5MEYYn45h6V-21" value="RAW DATA TO BE FED INTO ML MODEL" style="text;html=1;strokeColor=none;fillColor=none;align=center;verticalAlign=middle;whiteSpace=wrap;rounded=0;dashed=1;dashPattern=1 1;fontSize=24;" vertex="1" parent="1">
          <mxGeometry x="1321" y="3410" width="359" height="20" as="geometry" />
        </mxCell>
        <mxCell id="D9-pF9VST5MEYYn45h6V-24" value="IMPORTED DATASETS FOR ML FORECAST" style="text;html=1;strokeColor=none;fillColor=none;align=center;verticalAlign=middle;whiteSpace=wrap;rounded=0;dashed=1;dashPattern=1 1;fontSize=24;" vertex="1" parent="1">
          <mxGeometry x="1140" y="4840" width="300" height="20" as="geometry" />
        </mxCell>
        <mxCell id="D9-pF9VST5MEYYn45h6V-28" value="EXPORTED ML FORECAST AS CSV" style="text;html=1;strokeColor=none;fillColor=none;align=center;verticalAlign=middle;whiteSpace=wrap;rounded=0;dashed=1;dashPattern=1 1;fontSize=24;" vertex="1" parent="1">
          <mxGeometry x="1879.9999999999998" y="4167.25" width="207.72" height="20" as="geometry" />
        </mxCell>
        <mxCell id="D9-pF9VST5MEYYn45h6V-29" value="EXPORTED DATA WAREHOUSE DATA" style="text;html=1;strokeColor=none;fillColor=none;align=center;verticalAlign=middle;whiteSpace=wrap;rounded=0;dashed=1;dashPattern=1 1;fontSize=24;" vertex="1" parent="1">
          <mxGeometry x="2220" y="5230" width="278" height="20" as="geometry" />
        </mxCell>
        <mxCell id="D9-pF9VST5MEYYn45h6V-30" value="" style="outlineConnect=0;dashed=0;verticalLabelPosition=bottom;verticalAlign=top;align=center;html=1;shape=mxgraph.aws3.lightsail;fillColor=#F58534;gradientColor=none;dashPattern=1 1;fontSize=24;" vertex="1" parent="1">
          <mxGeometry x="220" y="1378.75" width="76.5" height="82.5" as="geometry" />
        </mxCell>
        <mxCell id="yI7PjoIeiXjcI_CWV4Vf-1" value="Lightsail instance contents" style="points=[[0,0],[0.25,0],[0.5,0],[0.75,0],[1,0],[1,0.25],[1,0.5],[1,0.75],[1,1],[0.75,1],[0.5,1],[0.25,1],[0,1],[0,0.75],[0,0.5],[0,0.25]];outlineConnect=0;gradientColor=none;html=1;whiteSpace=wrap;fontSize=12;fontStyle=0;shape=mxgraph.aws4.group;grIcon=mxgraph.aws4.group_ec2_instance_contents;strokeColor=#D86613;fillColor=none;verticalAlign=top;align=left;spacingLeft=30;fontColor=#D86613;dashed=0;" parent="1" vertex="1">
          <mxGeometry x="210" y="1350" width="1900" height="318.65" as="geometry" />
        </mxCell>
        <mxCell id="D9-pF9VST5MEYYn45h6V-31" value="AWS Cloud" style="points=[[0,0],[0.25,0],[0.5,0],[0.75,0],[1,0],[1,0.25],[1,0.5],[1,0.75],[1,1],[0.75,1],[0.5,1],[0.25,1],[0,1],[0,0.75],[0,0.5],[0,0.25]];outlineConnect=0;gradientColor=none;html=1;whiteSpace=wrap;fontSize=12;fontStyle=0;shape=mxgraph.aws4.group;grIcon=mxgraph.aws4.group_aws_cloud_alt;strokeColor=#232F3E;fillColor=none;verticalAlign=top;align=left;spacingLeft=30;fontColor=#232F3E;dashed=0;dashPattern=1 1;" vertex="1" parent="1">
          <mxGeometry x="-30" y="1290" width="4250" height="4070" as="geometry" />
        </mxCell>
      </root>
    </mxGraphModel>
  </diagram>
</mxfile>
